<?xml version="1.0" standalone="no"?>
<!DOCTYPE svg PUBLIC "-//W3C//DTD SVG 20010904//EN"
 "http://www.w3.org/TR/2001/REC-SVG-20010904/DTD/svg10.dtd">
<svg version="1.0" xmlns="http://www.w3.org/2000/svg"
 width="1365.000000pt" height="768.000000pt" viewBox="0 0 1365.000000 768.000000"
 preserveAspectRatio="xMidYMid meet">

<g transform="translate(0.000000,768.000000) scale(0.100000,-0.100000)"
fill="#000000" stroke="none">
<path d="M0 3840 l0 -3840 6825 0 6825 0 0 3840 0 3840 -6825 0 -6825 0 0
-3840z m5375 1475 c157 -33 304 -113 403 -218 28 -31 52 -59 52 -64 -1 -4 -18
-28 -40 -52 l-38 -44 -78 71 c-142 132 -281 186 -474 185 -111 0 -178 -14
-282 -58 -16 -6 -18 -1 -18 39 0 84 36 121 145 145 64 14 253 12 330 -4z
m3320 -42 c165 -47 312 -132 424 -247 l65 -66 -25 -26 c-13 -14 -37 -35 -52
-46 l-28 -20 -78 75 c-396 378 -1030 259 -1281 -242 -107 -214 -103 -516 10
-741 82 -164 253 -313 433 -378 296 -107 609 -42 836 174 l86 82 48 -40 c26
-22 47 -46 47 -52 0 -22 -152 -161 -232 -214 -282 -183 -671 -188 -984 -11
-107 60 -261 214 -328 326 -56 96 -110 245 -127 353 -15 99 -6 284 20 381 93
357 364 620 726 704 90 21 348 14 440 -12z m-1335 -68 l0 -65 -535 0 -535 0 0
-355 0 -355 338 -2 c185 -1 398 -2 472 -2 l135 -1 3 -67 3 -68 -476 0 -475 0
0 -360 0 -360 560 0 560 0 0 -70 0 -70 -630 0 -630 0 0 920 0 920 605 0 605 0
0 -65z m-2578 -62 c11 -193 107 -275 468 -404 238 -85 352 -151 467 -272 125
-132 172 -243 180 -427 7 -135 -7 -204 -63 -319 -42 -86 -129 -178 -217 -230
-32 -19 -104 -50 -160 -70 -99 -35 -106 -36 -252 -36 -125 0 -164 4 -235 23
-114 31 -271 110 -349 176 -63 54 -161 163 -161 179 0 4 20 29 45 55 l45 47
32 -40 c17 -22 63 -71 102 -108 189 -184 553 -256 734 -145 46 28 82 94 82
152 0 124 -67 180 -320 265 -375 127 -565 285 -652 546 -31 93 -33 280 -4 365
28 81 59 139 105 195 38 45 128 125 142 125 4 0 8 -35 11 -77z m4172 -453
c186 -70 254 -323 135 -504 -59 -88 -188 -150 -315 -149 -116 1 -230 48 -417
173 -162 107 -223 133 -328 138 -92 5 -174 -12 -236 -48 -18 -11 -33 -15 -33
-9 0 24 105 111 177 146 63 31 90 38 150 42 96 4 143 -8 288 -79 138 -66 180
-80 251 -80 87 0 157 64 157 142 0 88 -53 137 -135 124 l-41 -7 25 33 c71 93
199 123 322 78z m-836 -458 c26 -10 110 -60 186 -111 169 -112 216 -137 314
-162 132 -34 302 -20 390 31 17 11 32 16 32 12 0 -4 -27 -41 -60 -83 -89 -115
-216 -203 -350 -243 -84 -25 -231 -31 -318 -12 -221 47 -432 227 -513 438 -18
48 -20 60 -9 74 15 17 80 53 120 65 48 14 158 10 208 -9z m-4253 -1299 c62
-31 105 -88 105 -138 0 -24 -2 -25 -59 -25 -57 0 -59 1 -65 30 -15 77 -186 74
-186 -2 0 -39 21 -57 114 -92 158 -62 200 -101 200 -189 0 -110 -75 -170 -214
-170 -84 0 -138 18 -184 61 -31 29 -56 79 -56 112 0 18 6 20 59 20 59 0 59 0
71 -36 29 -88 200 -81 200 8 0 40 -25 60 -115 92 -144 51 -195 100 -195 186 0
80 60 140 160 161 46 10 127 1 165 -18z m1495 -3 c59 -30 111 -108 96 -145 -8
-21 -116 -22 -116 -1 0 8 -11 27 -23 42 -20 23 -32 28 -74 28 -60 1 -93 -22
-93 -65 0 -35 24 -52 118 -86 142 -51 192 -103 192 -196 0 -97 -84 -159 -214
-159 -44 1 -89 7 -112 17 -69 28 -124 95 -124 150 0 24 2 25 59 25 57 0 58 -1
67 -32 25 -88 204 -86 204 2 0 37 -39 67 -131 100 -156 56 -214 135 -170 234
44 100 206 143 321 86z m500 3 c47 -19 69 -41 91 -88 31 -68 28 -75 -39 -75
-56 0 -59 1 -73 32 -20 47 -76 67 -132 47 -44 -15 -59 -41 -46 -77 9 -23 57
-48 163 -87 55 -20 110 -65 133 -108 20 -39 13 -119 -14 -155 -38 -51 -89 -72
-181 -72 -139 0 -220 53 -246 163 l-6 27 64 0 c62 0 64 -1 69 -30 11 -54 93
-84 159 -57 43 18 57 57 33 94 -17 26 -20 27 -141 73 -46 17 -94 43 -112 61
-102 100 -40 243 117 269 54 9 113 3 161 -17z m978 5 c65 -20 126 -95 134
-164 l3 -29 -59 0 c-59 0 -60 1 -68 32 -12 47 -51 73 -108 73 -90 0 -124 -55
-124 -200 0 -146 34 -200 126 -200 60 0 93 20 108 66 11 34 12 34 71 34 l59 0
-6 -27 c-19 -77 -63 -132 -126 -158 -63 -25 -170 -22 -227 7 -91 47 -139 162
-128 308 8 97 23 141 65 191 68 79 164 103 280 67z m552 -4 c90 -38 141 -130
148 -265 7 -146 -41 -249 -141 -300 -51 -27 -154 -29 -215 -4 -55 22 -114 90
-135 156 -32 99 -15 261 35 332 66 93 196 127 308 81z m582 -5 c46 -23 92 -79
107 -130 15 -48 9 -59 -32 -59 -57 0 -76 10 -87 46 -6 19 -21 41 -33 49 -25
17 -109 20 -139 4 -38 -20 -58 -85 -58 -192 0 -146 32 -196 125 -197 61 0 89
18 105 65 11 35 12 35 71 35 32 0 59 -3 59 -7 0 -30 -26 -89 -52 -119 -47 -53
-98 -75 -176 -76 -114 -1 -189 46 -233 146 -19 42 -23 69 -23 156 -1 116 18
176 72 233 69 73 199 93 294 46z m-3837 -1 c14 -62 75 -364 75 -372 0 -32 18
26 60 196 l47 193 56 3 c54 3 57 2 63 -25 12 -54 75 -308 86 -348 10 -39 12
-33 54 165 24 113 43 206 44 208 1 7 120 1 120 -7 0 -8 -126 -540 -136 -574
-5 -15 -15 -17 -67 -15 l-60 3 -14 50 c-7 28 -30 117 -51 199 l-39 150 -37
-150 c-20 -82 -44 -173 -52 -201 l-15 -53 -59 0 c-47 0 -60 3 -64 18 -11 38
-136 562 -136 572 0 6 26 10 60 10 54 0 60 -2 65 -22z m793 -275 l-3 -298 -60
0 -60 0 -3 285 c-1 157 0 290 3 297 3 9 25 13 65 13 l60 0 -2 -297z m1517 247
l0 -45 -137 -3 -138 -3 0 -69 0 -70 113 0 c63 0 116 -2 118 -4 2 -3 3 -25 1
-50 l-4 -46 -114 0 -114 0 0 -80 0 -80 141 0 140 0 -3 -47 -3 -48 -196 -3
-197 -2 -5 22 c-4 18 -3 313 3 561 0 16 14 17 198 15 l197 -3 0 -45z m1837
-197 l3 -248 133 -3 132 -3 0 -27 c0 -15 -3 -37 -6 -49 -6 -23 -8 -23 -195
-23 l-189 0 0 300 0 300 60 0 60 0 2 -247z m723 197 l0 -45 -137 -3 -138 -3 0
-69 0 -69 118 -3 117 -3 0 -45 0 -45 -117 -3 -118 -3 0 -79 0 -80 140 0 140 0
0 -50 0 -50 -200 0 -200 0 0 300 0 300 198 -2 197 -3 0 -45z m383 -20 c22 -58
186 -485 199 -518 4 -10 -10 -12 -62 -10 l-68 3 -21 60 -21 60 -110 0 -110 0
-21 -60 -21 -60 -62 -3 c-45 -2 -61 0 -61 10 0 14 194 538 211 570 9 16 20 18
67 16 l56 -3 24 -65z m473 -101 c152 -251 138 -248 139 -21 l0 192 60 0 60 0
0 -300 0 -301 -62 3 -62 3 -116 190 -115 189 -5 -189 -5 -190 -57 0 -57 0 -7
287 c-3 158 -3 291 1 297 3 6 32 11 64 11 l59 0 103 -171z"/>
<path d="M4671 4914 c-75 -157 -36 -389 93 -546 88 -108 206 -176 455 -263 73
-25 157 -57 187 -70 l53 -23 -12 26 c-45 106 -114 174 -318 313 -67 46 -144
103 -170 127 -44 40 -119 131 -119 146 0 3 26 -15 58 -41 70 -57 181 -128 332
-213 157 -89 271 -199 329 -318 50 -105 64 -170 59 -288 -1 -52 0 -94 4 -94
10 0 81 97 102 137 47 93 57 236 26 359 -26 99 -68 171 -145 242 -109 101
-181 139 -422 222 -82 28 -185 69 -230 91 -95 45 -188 126 -224 194 -13 25
-26 45 -29 45 -4 0 -16 -21 -29 -46z"/>
<path d="M7211 2829 c-39 -37 -54 -87 -55 -184 0 -77 3 -96 23 -131 27 -48 55
-64 111 -64 48 0 94 36 111 88 7 20 13 71 13 112 0 92 -16 141 -55 175 -40 33
-114 35 -148 4z"/>
<path d="M9270 2698 c-17 -51 -34 -99 -37 -105 -3 -10 14 -13 70 -13 l75 0
-33 100 c-17 55 -35 103 -38 106 -2 3 -19 -37 -37 -88z"/>
</g>
</svg>
